<?xml version="1.0" standalone="no"?>
<!DOCTYPE svg PUBLIC "-//W3C//DTD SVG 20010904//EN"
 "http://www.w3.org/TR/2001/REC-SVG-20010904/DTD/svg10.dtd">
<svg version="1.0" xmlns="http://www.w3.org/2000/svg"
 width="2264.000000pt" height="1639.000000pt" viewBox="0 0 2264.000000 1639.000000"
 preserveAspectRatio="xMidYMid meet">
<metadata>
Created by potrace 1.16, written by Peter Selinger 2001-2019
</metadata>
<g transform="translate(0.000000,1639.000000) scale(0.100000,-0.100000)"
fill="#000000" stroke="none">
<path d="M11040 15995 l0 -395 -85 0 -85 0 0 -475 0 -475 -125 0 -125 0 0 -65
0 -65 163 6 c217 9 455 -7 770 -52 l47 -7 0 92 0 91 -125 0 -125 0 0 475 0
475 -85 0 -85 0 0 395 0 395 -70 0 -70 0 0 -395z"/>
<path d="M13520 13853 l0 -298 70 -63 70 -63 0 360 0 361 -70 0 -70 0 0 -297z"/>
<path d="M15080 12570 l0 -240 -294 0 -294 0 62 -137 c234 -513 356 -1014 373
-1530 7 -214 28 -194 -165 -163 -1190 192 -2125 270 -3232 270 -1388 0 -2668
-129 -4170 -420 -173 -34 -358 -70 -410 -80 -52 -10 -97 -16 -100 -13 -3 3 -5
116 -5 251 1 261 12 394 51 635 21 129 24 180 24 412 l0 265 -250 0 -250 0 0
-540 0 -540 -215 0 -215 0 -2 -346 -3 -347 -240 -63 c-973 -258 -2022 -598
-3035 -982 -422 -161 -435 -165 -423 -169 6 -2 113 23 239 56 2033 526 4238
870 6489 1011 910 57 1585 74 2595 67 745 -6 951 -11 1490 -37 2430 -119 4742
-486 6679 -1061 112 -33 205 -58 208 -55 5 5 -42 28 -368 176 -997 454 -2070
843 -3099 1123 l-235 64 -3 282 -2 281 -165 0 -165 0 0 345 0 345 -190 0 -190
0 0 80 c0 47 4 80 10 80 7 0 10 210 10 610 l0 610 -255 0 -255 0 0 -240z"/>
<path d="M9156 8625 c-377 -61 -667 -277 -786 -586 -58 -152 -72 -227 -77
-435 -8 -278 23 -462 106 -639 102 -218 178 -300 714 -777 507 -452 634 -573
731 -703 127 -169 175 -303 183 -515 15 -377 -159 -580 -497 -580 -188 0 -317
59 -431 197 -115 140 -205 424 -226 716 -3 48 -9 87 -12 87 -12 0 -581 -157
-585 -161 -8 -10 17 -214 40 -329 91 -453 313 -775 638 -926 168 -77 331 -108
571 -107 194 0 315 20 466 77 176 66 369 216 468 364 145 216 210 501 183 805
-28 310 -121 541 -329 818 -121 161 -248 285 -728 709 -464 410 -529 473 -603
588 -128 199 -136 531 -16 703 77 112 229 182 424 195 215 15 391 -77 483
-254 67 -129 113 -311 132 -525 6 -66 9 -77 23 -73 10 3 134 37 277 76 143 40
262 74 264 76 6 6 -18 181 -40 294 -54 269 -163 500 -306 646 -118 121 -279
204 -483 249 -106 24 -462 30 -584 10z"/>
<path d="M0 6255 l0 -2345 629 0 c625 0 818 7 955 36 280 58 487 193 643 419
72 105 156 321 186 480 41 213 46 536 12 740 -48 294 -171 527 -351 664 -81
61 -238 141 -328 167 l-64 18 72 18 c39 10 109 36 155 58 67 33 101 57 166
123 70 70 90 97 133 187 85 177 112 320 112 605 0 199 -13 316 -51 454 -118
435 -443 665 -1003 711 -71 5 -385 10 -697 10 l-569 0 0 -2345z m1040 1845
c293 -14 394 -39 513 -124 92 -65 133 -137 167 -291 33 -148 28 -452 -10 -602
-59 -230 -170 -345 -389 -405 -67 -19 -111 -22 -368 -26 l-293 -4 0 731 0 731
93 0 c50 0 180 -5 287 -10z m265 -1988 c317 -86 471 -304 507 -720 9 -102 9
-171 0 -292 -27 -348 -116 -537 -295 -625 -142 -69 -257 -85 -609 -85 l-248 0
0 876 0 876 283 -4 c248 -4 292 -8 362 -26z"/>
<path d="M3020 6255 l0 -2345 915 0 915 0 0 240 0 240 -585 0 -585 0 0 855 0
855 470 0 470 0 0 235 0 235 -470 0 -470 0 0 770 0 770 580 0 580 0 0 245 0
245 -910 0 -910 0 0 -2345z"/>
<path d="M5370 6255 l0 -2345 280 0 280 0 2 1582 3 1581 667 -1579 666 -1579
216 -3 216 -2 0 2345 0 2345 -280 0 -280 0 0 -1537 -1 -1538 -657 1535 -657
1535 -228 3 -227 2 0 -2345z"/>
<path d="M11150 6255 l0 -2345 330 0 330 0 0 1095 0 1095 595 0 595 0 0 -1095
0 -1095 330 0 330 0 0 2345 0 2345 -330 0 -330 0 0 -1010 0 -1010 -595 0 -595
0 0 1010 0 1010 -330 0 -330 0 0 -2345z"/>
<path d="M14627 6268 c-273 -1283 -497 -2339 -497 -2346 0 -10 66 -12 312 -10
l313 3 110 585 110 585 473 3 c259 1 472 -1 472 -4 0 -3 47 -267 105 -585 58
-319 105 -582 105 -584 0 -3 142 -5 316 -5 l317 0 -7 38 c-3 20 -228 1074
-499 2342 l-493 2305 -319 3 -320 2 -498 -2332z m1012 332 c105 -563 189
-1025 187 -1027 -2 -2 -174 -2 -382 -1 l-379 3 190 1032 c104 568 191 1029
192 1025 1 -4 88 -468 192 -1032z"/>
<path d="M17230 6255 l0 -2345 543 0 c722 0 896 14 1115 92 415 146 623 445
719 1033 15 87 17 240 21 1180 4 1149 1 1242 -43 1461 -120 594 -448 860
-1129 914 -71 5 -376 10 -677 10 l-549 0 0 -2345z m1228 1835 c102 -17 211
-56 267 -95 80 -55 160 -178 190 -292 42 -158 45 -259 45 -1413 0 -1349 -3
-1396 -100 -1595 -72 -151 -131 -202 -290 -254 -111 -37 -239 -51 -467 -51
l-213 0 0 1861 0 1862 253 -6 c138 -3 280 -11 315 -17z"/>
<path d="M20507 6268 c-273 -1283 -497 -2339 -497 -2346 0 -10 66 -12 313 -10
l312 3 110 585 110 585 473 3 c259 1 472 0 472 -3 0 -2 47 -265 105 -584 58
-319 105 -582 105 -585 0 -4 142 -6 315 -6 294 0 315 1 314 18 0 9 -224 1063
-497 2342 l-497 2325 -320 3 -320 2 -498 -2332z m1008 356 c102 -549 188
-1011 191 -1026 l6 -28 -384 0 -384 0 190 1030 c105 566 191 1028 193 1026 1
-1 86 -452 188 -1002z"/>
<path d="M17150 1309 c-1236 -361 -2809 -613 -4405 -704 -948 -54 -1993 -54
-2955 1 -1613 90 -3178 323 -4632 688 -159 40 -288 69 -288 65 0 -3 8 -9 17
-12 10 -3 115 -42 233 -87 1752 -666 3503 -1083 5090 -1214 451 -38 550 -41
1210 -41 710 0 842 6 1375 60 1490 151 2948 551 4403 1210 106 48 195 91 198
96 7 12 16 15 -246 -62z"/>
</g>
</svg>
